<svg width="645" height="238" viewBox="0 0 645 238" fill="none" xmlns="http://www.w3.org/2000/svg">
<path d="M36.1816 103.311H43.6523C50.6348 103.311 55.8594 101.943 59.3262 99.209C62.793 96.4258 64.5264 92.3975 64.5264 87.124C64.5264 81.8018 63.0615 77.8711 60.1318 75.332C57.251 72.793 52.71 71.5234 46.5088 71.5234H36.1816V103.311ZM87.4512 86.3184C87.4512 97.8418 83.8379 106.655 76.6113 112.759C69.4336 118.862 59.2041 121.914 45.9229 121.914H36.1816V160H13.4766V52.9199H47.6807C60.6689 52.9199 70.5322 55.7275 77.2705 61.3428C84.0576 66.9092 87.4512 75.2344 87.4512 86.3184ZM204.858 106.313C204.858 124.038 200.464 137.661 191.675 147.183C182.886 156.704 170.288 161.465 153.882 161.465C137.476 161.465 124.878 156.704 116.089 147.183C107.3 137.661 102.905 123.989 102.905 106.167C102.905 88.3447 107.3 74.7461 116.089 65.3711C124.927 55.9473 137.573 51.2354 154.028 51.2354C170.483 51.2354 183.057 55.9717 191.748 65.4443C200.488 74.917 204.858 88.54 204.858 106.313ZM126.709 106.313C126.709 118.276 128.979 127.285 133.521 133.34C138.062 139.395 144.849 142.422 153.882 142.422C171.997 142.422 181.055 130.386 181.055 106.313C181.055 82.1924 172.046 70.1318 154.028 70.1318C144.995 70.1318 138.184 73.1836 133.594 79.2871C129.004 85.3418 126.709 94.3506 126.709 106.313ZM227.051 160V52.9199H249.756V141.25H293.188V160H227.051ZM311.865 160V52.9199H334.57V160H311.865Z" fill="#AD0000"/>
<path d="M450.366 105.435C450.366 123.062 445.337 136.562 435.278 145.938C425.269 155.312 410.791 160 391.846 160H361.523V52.9199H395.142C412.622 52.9199 426.196 57.5342 435.864 66.7627C445.532 75.9912 450.366 88.8818 450.366 105.435ZM426.782 106.021C426.782 83.0225 416.626 71.5234 396.313 71.5234H384.229V141.25H393.97C415.845 141.25 426.782 129.507 426.782 106.021ZM534.229 160H472.559V52.9199H534.229V71.5234H495.264V95.0342H531.519V113.638H495.264V141.25H534.229V160ZM643.213 160H617.285L592.383 119.497L567.48 160H543.164L578.687 104.775L545.435 52.9199H570.483L593.555 91.4453L616.187 52.9199H640.649L607.031 106.021L643.213 160Z" fill="#002761"/>
<path fill-rule="evenodd" clip-rule="evenodd" d="M310.436 35.1777L310.258 35.3553L320.865 45.9619L321.042 45.7843L321.213 45.9553L331.82 35.3487L331.649 35.1777L356.22 10.6066L345.613 0L321.042 24.5711L310.607 14.1355L300 24.7421L310.436 35.1777Z" fill="#AD0000"/>
</svg>
