<svg width="575" height="60" viewBox="0 0 575 60" fill="none" xmlns="http://www.w3.org/2000/svg">
<g filter="url(#filter0_i)">
<path d="M11.9385 53H4.49219V17.3066H24.9512V23.5078H11.9385V32.7119H24.0479V38.8887H11.9385V53ZM45.2881 53H29.0527V48.7031L33.3984 46.7012V23.6055L29.0527 21.6035V17.3066H45.2881V21.6035L40.9424 23.6055V46.7012L45.2881 48.7031V53ZM51.416 53V17.3066H58.9844V46.75H73.4619V53H51.416ZM93.457 53H85.8887V23.6055H76.1963V17.3066H103.149V23.6055H93.457V53ZM129.199 53H108.643V17.3066H129.199V23.5078H116.211V31.3447H128.296V37.5459H116.211V46.75H129.199V53ZM144.238 33.1514H146.68C149.072 33.1514 150.838 32.7526 151.978 31.9551C153.117 31.1576 153.687 29.9043 153.687 28.1953C153.687 26.5026 153.101 25.2982 151.929 24.582C150.773 23.8659 148.975 23.5078 146.533 23.5078H144.238V33.1514ZM144.238 39.3037V53H136.67V17.3066H147.07C151.921 17.3066 155.509 18.1937 157.837 19.9678C160.164 21.7256 161.328 24.403 161.328 28C161.328 30.0996 160.75 31.9714 159.595 33.6152C158.439 35.2428 156.803 36.5205 154.688 37.4482C160.059 45.4723 163.558 50.6562 165.186 53H156.787L148.267 39.3037H144.238ZM182.666 17.3066H193.774C198.836 17.3066 202.507 18.0309 204.785 19.4795C207.08 20.9118 208.228 23.1986 208.228 26.3398C208.228 28.472 207.723 30.2217 206.714 31.5889C205.721 32.9561 204.395 33.778 202.734 34.0547V34.2988C204.997 34.8034 206.624 35.7474 207.617 37.1309C208.626 38.5143 209.131 40.3535 209.131 42.6484C209.131 45.9036 207.951 48.4427 205.591 50.2656C203.247 52.0885 200.057 53 196.021 53H182.666V17.3066ZM190.234 31.4424H194.629C196.68 31.4424 198.161 31.125 199.072 30.4902C200 29.8555 200.464 28.8057 200.464 27.3408C200.464 25.9736 199.959 24.9971 198.95 24.4111C197.957 23.8089 196.379 23.5078 194.214 23.5078H190.234V31.4424ZM190.234 37.4482V46.75H195.166C197.249 46.75 198.787 46.3512 199.78 45.5537C200.773 44.7562 201.27 43.5355 201.27 41.8916C201.27 38.9294 199.154 37.4482 194.922 37.4482H190.234ZM227.368 32.0039L234.814 17.3066H242.969L231.128 39.1084V53H223.608V39.3525L211.768 17.3066H219.971L227.368 32.0039Z" fill="#002761"/>
<path d="M260.449 53V17.3066H268.018V46.75H282.495V53H260.449ZM321.118 35.1045C321.118 41.0127 319.653 45.5537 316.724 48.7275C313.794 51.9014 309.595 53.4883 304.126 53.4883C298.657 53.4883 294.458 51.9014 291.528 48.7275C288.599 45.5537 287.134 40.9964 287.134 35.0557C287.134 29.1149 288.599 24.582 291.528 21.457C294.474 18.3158 298.69 16.7451 304.175 16.7451C309.66 16.7451 313.851 18.3239 316.748 21.4814C319.661 24.639 321.118 29.18 321.118 35.1045ZM295.068 35.1045C295.068 39.0921 295.825 42.0951 297.339 44.1133C298.853 46.1315 301.115 47.1406 304.126 47.1406C310.164 47.1406 313.184 43.1286 313.184 35.1045C313.184 27.0641 310.181 23.0439 304.175 23.0439C301.164 23.0439 298.893 24.0612 297.363 26.0957C295.833 28.1139 295.068 31.1169 295.068 35.1045ZM343.677 23.0928C340.828 23.0928 338.623 24.167 337.061 26.3154C335.498 28.4476 334.717 31.4261 334.717 35.251C334.717 43.21 337.703 47.1895 343.677 47.1895C346.183 47.1895 349.219 46.5628 352.783 45.3096V51.6572C349.854 52.8779 346.582 53.4883 342.969 53.4883C337.777 53.4883 333.805 51.9176 331.055 48.7764C328.304 45.6188 326.929 41.0941 326.929 35.2021C326.929 31.4912 327.604 28.2441 328.955 25.4609C330.306 22.6615 332.243 20.5212 334.766 19.04C337.305 17.5426 340.275 16.7939 343.677 16.7939C347.144 16.7939 350.627 17.6322 354.126 19.3086L351.685 25.4609C350.35 24.8262 349.007 24.2728 347.656 23.8008C346.305 23.3288 344.979 23.0928 343.677 23.0928ZM382.251 53L379.663 44.5039H366.65L364.062 53H355.908L368.506 17.1602H377.759L390.405 53H382.251ZM377.856 38.1562C375.464 30.4577 374.113 26.1038 373.804 25.0947C373.511 24.0856 373.299 23.2881 373.169 22.7021C372.632 24.7855 371.094 29.9368 368.555 38.1562H377.856ZM408.691 53H401.123V23.6055H391.431V17.3066H418.384V23.6055H408.691V53ZM437.231 53H420.996V48.7031L425.342 46.7012V23.6055L420.996 21.6035V17.3066H437.231V21.6035L432.886 23.6055V46.7012L437.231 48.7031V53ZM475.757 35.1045C475.757 41.0127 474.292 45.5537 471.362 48.7275C468.433 51.9014 464.233 53.4883 458.765 53.4883C453.296 53.4883 449.097 51.9014 446.167 48.7275C443.237 45.5537 441.772 40.9964 441.772 35.0557C441.772 29.1149 443.237 24.582 446.167 21.457C449.113 18.3158 453.328 16.7451 458.813 16.7451C464.299 16.7451 468.49 18.3239 471.387 21.4814C474.3 24.639 475.757 29.18 475.757 35.1045ZM449.707 35.1045C449.707 39.0921 450.464 42.0951 451.978 44.1133C453.491 46.1315 455.754 47.1406 458.765 47.1406C464.803 47.1406 467.822 43.1286 467.822 35.1045C467.822 27.0641 464.819 23.0439 458.813 23.0439C455.802 23.0439 453.532 24.0612 452.002 26.0957C450.472 28.1139 449.707 31.1169 449.707 35.1045ZM514.819 53H505.2L489.673 25.998H489.453C489.762 30.7669 489.917 34.1686 489.917 36.2031V53H483.154V17.3066H492.7L508.203 44.04H508.374C508.13 39.4014 508.008 36.1217 508.008 34.2012V17.3066H514.819V53Z" fill="#AD0000"/>
</g>
<defs>
<filter id="filter0_i" x="4.49219" y="16.7451" width="510.327" height="38.7432" filterUnits="userSpaceOnUse" color-interpolation-filters="sRGB">
<feFlood flood-opacity="0" result="BackgroundImageFix"/>
<feBlend mode="normal" in="SourceGraphic" in2="BackgroundImageFix" result="shape"/>
<feColorMatrix in="SourceAlpha" type="matrix" values="0 0 0 0 0 0 0 0 0 0 0 0 0 0 0 0 0 0 127 0" result="hardAlpha"/>
<feOffset dy="2"/>
<feGaussianBlur stdDeviation="1"/>
<feComposite in2="hardAlpha" operator="arithmetic" k2="-1" k3="1"/>
<feColorMatrix type="matrix" values="0 0 0 0 0 0 0 0 0 0 0 0 0 0 0 0 0 0 0.25 0"/>
<feBlend mode="normal" in2="shape" result="effect1_innerShadow"/>
</filter>
</defs>
</svg>
