<svg width="388" height="38" viewBox="0 0 388 38" fill="none" xmlns="http://www.w3.org/2000/svg">
<g filter="url(#filter0_i)">
<path d="M23.8327 27.0879C23.8327 30.3105 22.669 32.8496 20.3415 34.7051C18.0303 36.5605 14.8076 37.4883 10.6735 37.4883C6.86491 37.4883 3.49577 36.7721 0.566086 35.3398V28.3086C2.97494 29.3828 5.00945 30.1396 6.6696 30.5791C8.34603 31.0186 9.87598 31.2383 11.2594 31.2383C12.9196 31.2383 14.1891 30.9209 15.068 30.2861C15.9632 29.6514 16.4108 28.7074 16.4108 27.4541C16.4108 26.7542 16.2155 26.1357 15.8249 25.5986C15.4342 25.0452 14.8565 24.5163 14.0915 24.0117C13.3428 23.5072 11.8047 22.7015 9.47722 21.5947C7.29623 20.5693 5.66049 19.5846 4.56999 18.6406C3.4795 17.6966 2.60873 16.598 1.95769 15.3447C1.30665 14.0915 0.981125 12.6266 0.981125 10.9502C0.981125 7.79264 2.04721 5.31055 4.17937 3.50391C6.3278 1.69727 9.29004 0.793945 13.0661 0.793945C14.9216 0.793945 16.6875 1.01367 18.3639 1.45312C20.0566 1.89258 21.8226 2.51107 23.6618 3.30859L21.2204 9.19238C19.3161 8.41113 17.7373 7.86589 16.4841 7.55664C15.2471 7.2474 14.0264 7.09277 12.8219 7.09277C11.3897 7.09277 10.291 7.42643 9.52605 8.09375C8.76107 8.76107 8.37859 9.63184 8.37859 10.7061C8.37859 11.3734 8.53321 11.9593 8.84245 12.4639C9.1517 12.9521 9.63998 13.4323 10.3073 13.9043C10.9909 14.36 12.5941 15.1901 15.1169 16.3945C18.4535 17.9896 20.7402 19.5928 21.9772 21.2041C23.2142 22.7992 23.8327 24.7604 23.8327 27.0879ZM50.8591 37H30.3024V1.30664H50.8591V7.50781H37.8708V15.3447H49.9557V21.5459H37.8708V30.75H50.8591V37ZM80.1803 37L77.5925 28.5039H64.5798L61.9919 37H53.8376L66.4352 1.16016H75.6882L88.3346 37H80.1803ZM75.7858 22.1562C73.3932 14.4577 72.0423 10.1038 71.7331 9.09473C71.4401 8.08561 71.2285 7.28809 71.0983 6.70215C70.5612 8.78548 69.0231 13.9368 66.4841 22.1562H75.7858ZM100.42 17.1514H102.861C105.254 17.1514 107.02 16.7526 108.159 15.9551C109.298 15.1576 109.868 13.9043 109.868 12.1953C109.868 10.5026 109.282 9.29818 108.11 8.58203C106.954 7.86589 105.156 7.50781 102.715 7.50781H100.42V17.1514ZM100.42 23.3037V37H92.8512V1.30664H103.252C108.102 1.30664 111.691 2.19368 114.018 3.96777C116.346 5.72559 117.509 8.40299 117.509 12C117.509 14.0996 116.932 15.9714 115.776 17.6152C114.62 19.2428 112.985 20.5205 110.869 21.4482C116.24 29.4723 119.739 34.6562 121.367 37H112.968L104.448 23.3037H100.42ZM141.02 7.09277C138.172 7.09277 135.966 8.16699 134.404 10.3154C132.841 12.4476 132.06 15.4261 132.06 19.251C132.06 27.21 135.047 31.1895 141.02 31.1895C143.527 31.1895 146.562 30.5628 150.127 29.3096V35.6572C147.197 36.8779 143.925 37.4883 140.312 37.4883C135.12 37.4883 131.149 35.9176 128.398 32.7764C125.647 29.6188 124.272 25.0941 124.272 19.2021C124.272 15.4912 124.948 12.2441 126.299 9.46094C127.649 6.66146 129.586 4.52116 132.109 3.04004C134.648 1.54264 137.618 0.793945 141.02 0.793945C144.487 0.793945 147.97 1.63216 151.469 3.30859L149.028 9.46094C147.693 8.82617 146.351 8.27279 145 7.80078C143.649 7.32878 142.322 7.09277 141.02 7.09277ZM186.992 37H179.448V21.5947H165.312V37H157.744V1.30664H165.312V15.2959H179.448V1.30664H186.992V37Z" fill="#AD0000"/>
<path d="M216.582 17.1514H219.023C221.416 17.1514 223.182 16.7526 224.321 15.9551C225.46 15.1576 226.03 13.9043 226.03 12.1953C226.03 10.5026 225.444 9.29818 224.272 8.58203C223.117 7.86589 221.318 7.50781 218.877 7.50781H216.582V17.1514ZM216.582 23.3037V37H209.013V1.30664H219.414C224.264 1.30664 227.853 2.19368 230.18 3.96777C232.508 5.72559 233.672 8.40299 233.672 12C233.672 14.0996 233.094 15.9714 231.938 17.6152C230.783 19.2428 229.147 20.5205 227.031 21.4482C232.402 29.4723 235.901 34.6562 237.529 37H229.131L220.61 23.3037H216.582ZM262.578 37H242.021V1.30664H262.578V7.50781H249.59V15.3447H261.674V21.5459H249.59V30.75H262.578V37ZM291.118 27.0879C291.118 30.3105 289.954 32.8496 287.627 34.7051C285.315 36.5605 282.093 37.4883 277.959 37.4883C274.15 37.4883 270.781 36.7721 267.851 35.3398V28.3086C270.26 29.3828 272.295 30.1396 273.955 30.5791C275.631 31.0186 277.161 31.2383 278.545 31.2383C280.205 31.2383 281.474 30.9209 282.353 30.2861C283.248 29.6514 283.696 28.7074 283.696 27.4541C283.696 26.7542 283.501 26.1357 283.11 25.5986C282.719 25.0452 282.142 24.5163 281.377 24.0117C280.628 23.5072 279.09 22.7015 276.762 21.5947C274.581 20.5693 272.946 19.5846 271.855 18.6406C270.765 17.6966 269.894 16.598 269.243 15.3447C268.592 14.0915 268.266 12.6266 268.266 10.9502C268.266 7.79264 269.332 5.31055 271.465 3.50391C273.613 1.69727 276.575 0.793945 280.351 0.793945C282.207 0.793945 283.973 1.01367 285.649 1.45312C287.342 1.89258 289.108 2.51107 290.947 3.30859L288.506 9.19238C286.601 8.41113 285.022 7.86589 283.769 7.55664C282.532 7.2474 281.312 7.09277 280.107 7.09277C278.675 7.09277 277.576 7.42643 276.811 8.09375C276.046 8.76107 275.664 9.63184 275.664 10.7061C275.664 11.3734 275.818 11.9593 276.128 12.4639C276.437 12.9521 276.925 13.4323 277.592 13.9043C278.276 14.36 279.879 15.1901 282.402 16.3945C285.739 17.9896 288.025 19.5928 289.262 21.2041C290.499 22.7992 291.118 24.7604 291.118 27.0879ZM326.64 1.30664V24.4023C326.64 27.0391 326.046 29.3503 324.858 31.3359C323.686 33.3216 321.985 34.8434 319.756 35.9014C317.526 36.9593 314.889 37.4883 311.845 37.4883C307.256 37.4883 303.691 36.3164 301.152 33.9727C298.613 31.6126 297.343 28.39 297.343 24.3047V1.30664H304.887V23.1572C304.887 25.9079 305.441 27.9261 306.548 29.2119C307.654 30.4977 309.485 31.1406 312.041 31.1406C314.515 31.1406 316.305 30.4977 317.412 29.2119C318.535 27.9098 319.096 25.8753 319.096 23.1084V1.30664H326.64ZM335.381 37V1.30664H342.949V30.75H357.426V37H335.381ZM377.422 37H369.853V7.60547H360.161V1.30664H387.114V7.60547H377.422V37Z" fill="#002761"/>
</g>
<defs>
<filter id="filter0_i" x="0.566162" y="0.793945" width="386.548" height="38.6943" filterUnits="userSpaceOnUse" color-interpolation-filters="sRGB">
<feFlood flood-opacity="0" result="BackgroundImageFix"/>
<feBlend mode="normal" in="SourceGraphic" in2="BackgroundImageFix" result="shape"/>
<feColorMatrix in="SourceAlpha" type="matrix" values="0 0 0 0 0 0 0 0 0 0 0 0 0 0 0 0 0 0 127 0" result="hardAlpha"/>
<feOffset dy="2"/>
<feGaussianBlur stdDeviation="1"/>
<feComposite in2="hardAlpha" operator="arithmetic" k2="-1" k3="1"/>
<feColorMatrix type="matrix" values="0 0 0 0 0 0 0 0 0 0 0 0 0 0 0 0 0 0 0.25 0"/>
<feBlend mode="normal" in2="shape" result="effect1_innerShadow"/>
</filter>
</defs>
</svg>
