<svg width="575" height="60" viewBox="0 0 575 60" fill="none" xmlns="http://www.w3.org/2000/svg">
<g filter="url(#filter0_i)">
<path d="M25.5615 43.0879C25.5615 46.3105 24.3978 48.8496 22.0703 50.7051C19.7591 52.5605 16.5365 53.4883 12.4023 53.4883C8.59375 53.4883 5.22461 52.7721 2.29492 51.3398V44.3086C4.70378 45.3828 6.73828 46.1396 8.39844 46.5791C10.0749 47.0186 11.6048 47.2383 12.9883 47.2383C14.6484 47.2383 15.918 46.9209 16.7969 46.2861C17.6921 45.6514 18.1396 44.7074 18.1396 43.4541C18.1396 42.7542 17.9443 42.1357 17.5537 41.5986C17.1631 41.0452 16.5853 40.5163 15.8203 40.0117C15.0716 39.5072 13.5335 38.7015 11.2061 37.5947C9.02507 36.5693 7.38932 35.5846 6.29883 34.6406C5.20833 33.6966 4.33757 32.598 3.68652 31.3447C3.03548 30.0915 2.70996 28.6266 2.70996 26.9502C2.70996 23.7926 3.77604 21.3105 5.9082 19.5039C8.05664 17.6973 11.0189 16.7939 14.7949 16.7939C16.6504 16.7939 18.4163 17.0137 20.0928 17.4531C21.7855 17.8926 23.5514 18.5111 25.3906 19.3086L22.9492 25.1924C21.0449 24.4111 19.4661 23.8659 18.2129 23.5566C16.9759 23.2474 15.7552 23.0928 14.5508 23.0928C13.1185 23.0928 12.0199 23.4264 11.2549 24.0938C10.4899 24.7611 10.1074 25.6318 10.1074 26.7061C10.1074 27.3734 10.262 27.9593 10.5713 28.4639C10.8805 28.9521 11.3688 29.4323 12.0361 29.9043C12.7197 30.36 14.3229 31.1901 16.8457 32.3945C20.1823 33.9896 22.4691 35.5928 23.7061 37.2041C24.943 38.7992 25.5615 40.7604 25.5615 43.0879ZM52.5879 53H32.0312V17.3066H52.5879V23.5078H39.5996V31.3447H51.6846V37.5459H39.5996V46.75H52.5879V53ZM81.9092 53L79.3213 44.5039H66.3086L63.7207 53H55.5664L68.1641 17.1602H77.417L90.0635 53H81.9092ZM77.5146 38.1562C75.1221 30.4577 73.7712 26.1038 73.4619 25.0947C73.1689 24.0856 72.9574 23.2881 72.8271 22.7021C72.29 24.7855 70.752 29.9368 68.2129 38.1562H77.5146ZM102.148 33.1514H104.59C106.982 33.1514 108.748 32.7526 109.888 31.9551C111.027 31.1576 111.597 29.9043 111.597 28.1953C111.597 26.5026 111.011 25.2982 109.839 24.582C108.683 23.8659 106.885 23.5078 104.443 23.5078H102.148V33.1514ZM102.148 39.3037V53H94.5801V17.3066H104.98C109.831 17.3066 113.42 18.1937 115.747 19.9678C118.075 21.7256 119.238 24.403 119.238 28C119.238 30.0996 118.66 31.9714 117.505 33.6152C116.349 35.2428 114.714 36.5205 112.598 37.4482C117.969 45.4723 121.468 50.6562 123.096 53H114.697L106.177 39.3037H102.148ZM142.749 23.0928C139.901 23.0928 137.695 24.167 136.133 26.3154C134.57 28.4476 133.789 31.4261 133.789 35.251C133.789 43.21 136.776 47.1895 142.749 47.1895C145.256 47.1895 148.291 46.5628 151.855 45.3096V51.6572C148.926 52.8779 145.654 53.4883 142.041 53.4883C136.849 53.4883 132.878 51.9176 130.127 48.7764C127.376 45.6188 126.001 41.0941 126.001 35.2021C126.001 31.4912 126.676 28.2441 128.027 25.4609C129.378 22.6615 131.315 20.5212 133.838 19.04C136.377 17.5426 139.347 16.7939 142.749 16.7939C146.216 16.7939 149.699 17.6322 153.198 19.3086L150.757 25.4609C149.422 24.8262 148.079 24.2728 146.729 23.8008C145.378 23.3288 144.051 23.0928 142.749 23.0928ZM188.721 53H181.177V37.5947H167.041V53H159.473V17.3066H167.041V31.2959H181.177V17.3066H188.721V53Z" fill="#AD0000"/>
<path d="M218.311 33.1514H220.752C223.145 33.1514 224.91 32.7526 226.05 31.9551C227.189 31.1576 227.759 29.9043 227.759 28.1953C227.759 26.5026 227.173 25.2982 226.001 24.582C224.845 23.8659 223.047 23.5078 220.605 23.5078H218.311V33.1514ZM218.311 39.3037V53H210.742V17.3066H221.143C225.993 17.3066 229.582 18.1937 231.909 19.9678C234.237 21.7256 235.4 24.403 235.4 28C235.4 30.0996 234.823 31.9714 233.667 33.6152C232.511 35.2428 230.876 36.5205 228.76 37.4482C234.131 45.4723 237.63 50.6562 239.258 53H230.859L222.339 39.3037H218.311ZM264.307 53H243.75V17.3066H264.307V23.5078H251.318V31.3447H263.403V37.5459H251.318V46.75H264.307V53ZM292.847 43.0879C292.847 46.3105 291.683 48.8496 289.355 50.7051C287.044 52.5605 283.822 53.4883 279.688 53.4883C275.879 53.4883 272.51 52.7721 269.58 51.3398V44.3086C271.989 45.3828 274.023 46.1396 275.684 46.5791C277.36 47.0186 278.89 47.2383 280.273 47.2383C281.934 47.2383 283.203 46.9209 284.082 46.2861C284.977 45.6514 285.425 44.7074 285.425 43.4541C285.425 42.7542 285.229 42.1357 284.839 41.5986C284.448 41.0452 283.87 40.5163 283.105 40.0117C282.357 39.5072 280.819 38.7015 278.491 37.5947C276.31 36.5693 274.674 35.5846 273.584 34.6406C272.493 33.6966 271.623 32.598 270.972 31.3447C270.321 30.0915 269.995 28.6266 269.995 26.9502C269.995 23.7926 271.061 21.3105 273.193 19.5039C275.342 17.6973 278.304 16.7939 282.08 16.7939C283.936 16.7939 285.701 17.0137 287.378 17.4531C289.071 17.8926 290.837 18.5111 292.676 19.3086L290.234 25.1924C288.33 24.4111 286.751 23.8659 285.498 23.5566C284.261 23.2474 283.04 23.0928 281.836 23.0928C280.404 23.0928 279.305 23.4264 278.54 24.0938C277.775 24.7611 277.393 25.6318 277.393 26.7061C277.393 27.3734 277.547 27.9593 277.856 28.4639C278.166 28.9521 278.654 29.4323 279.321 29.9043C280.005 30.36 281.608 31.1901 284.131 32.3945C287.467 33.9896 289.754 35.5928 290.991 37.2041C292.228 38.7992 292.847 40.7604 292.847 43.0879ZM328.369 17.3066V40.4023C328.369 43.0391 327.775 45.3503 326.587 47.3359C325.415 49.3216 323.714 50.8434 321.484 51.9014C319.255 52.9593 316.618 53.4883 313.574 53.4883C308.984 53.4883 305.42 52.3164 302.881 49.9727C300.342 47.6126 299.072 44.39 299.072 40.3047V17.3066H306.616V39.1572C306.616 41.9079 307.17 43.9261 308.276 45.2119C309.383 46.4977 311.214 47.1406 313.77 47.1406C316.243 47.1406 318.034 46.4977 319.141 45.2119C320.264 43.9098 320.825 41.8753 320.825 39.1084V17.3066H328.369ZM337.109 53V17.3066H344.678V46.75H359.155V53H337.109ZM379.15 53H371.582V23.6055H361.89V17.3066H388.843V23.6055H379.15V53Z" fill="#002761"/>
</g>
<defs>
<filter id="filter0_i" x="2.29492" y="16.7939" width="386.548" height="38.6943" filterUnits="userSpaceOnUse" color-interpolation-filters="sRGB">
<feFlood flood-opacity="0" result="BackgroundImageFix"/>
<feBlend mode="normal" in="SourceGraphic" in2="BackgroundImageFix" result="shape"/>
<feColorMatrix in="SourceAlpha" type="matrix" values="0 0 0 0 0 0 0 0 0 0 0 0 0 0 0 0 0 0 127 0" result="hardAlpha"/>
<feOffset dy="2"/>
<feGaussianBlur stdDeviation="1"/>
<feComposite in2="hardAlpha" operator="arithmetic" k2="-1" k3="1"/>
<feColorMatrix type="matrix" values="0 0 0 0 0 0 0 0 0 0 0 0 0 0 0 0 0 0 0.25 0"/>
<feBlend mode="normal" in2="shape" result="effect1_innerShadow"/>
</filter>
</defs>
</svg>
